<?xml version="1.0" standalone="no"?>
<!DOCTYPE svg PUBLIC "-//W3C//DTD SVG 20010904//EN"
 "http://www.w3.org/TR/2001/REC-SVG-20010904/DTD/svg10.dtd">
<svg version="1.0" xmlns="http://www.w3.org/2000/svg"
 width="1024.000000pt" height="1024.000000pt" viewBox="0 0 1024.000000 1024.000000"
 preserveAspectRatio="xMidYMid meet">

<g transform="translate(0.000000,1024.000000) scale(0.100000,-0.100000)"
fill="#000000" stroke="none">
<path d="M4199 7661 c-150 -95 -80 -331 98 -331 99 0 176 82 174 186 0 69 -27
115 -85 149 -61 36 -128 34 -187 -4z"/>
<path d="M5875 7676 c-166 -74 -124 -330 57 -343 153 -12 250 152 165 278 -46
69 -147 98 -222 65z"/>
<path d="M3031 7564 c0 -11 3 -14 6 -6 3 7 2 16 -1 19 -3 4 -6 -2 -5 -13z"/>
<path d="M4852 7221 c-24 -15 -9 -54 33 -83 133 -91 340 -91 470 0 43 30 53
66 23 85 -12 8 -24 5 -53 -17 -74 -57 -204 -82 -295 -56 -20 5 -62 26 -94 45
-64 38 -65 39 -84 26z"/>
<path d="M2765 4258 c-13 -36 -87 -337 -105 -428 -50 -252 -92 -649 -89 -847
l1 -68 24 52 c34 75 97 292 139 478 19 88 44 196 54 240 11 44 27 132 36 195
9 63 25 164 36 224 10 60 19 111 19 112 0 3 -100 54 -106 54 -3 0 -7 -6 -9
-12z m-8 -633 c0 -8 -4 -12 -9 -9 -5 3 -6 10 -3 15 9 13 12 11 12 -6z"/>
<path d="M7417 4242 c-56 -31 -54 0 -13 -277 15 -99 40 -238 56 -310 17 -71
42 -182 56 -245 50 -221 126 -464 155 -495 6 -6 8 2 5 20 -3 17 -8 107 -11
200 -3 94 -7 181 -9 195 -2 14 -7 57 -11 95 -20 219 -149 846 -174 845 -3 0
-28 -13 -54 -28z"/>
<path d="M1751 3714 c0 -11 3 -14 6 -6 3 7 2 16 -1 19 -3 4 -6 -2 -5 -13z"/>
<path d="M6419 2555 c-26 -13 -91 -42 -145 -63 -268 -106 -552 -174 -841 -202
-53 -5 -99 -12 -103 -17 -4 -4 -10 -44 -14 -89 l-6 -81 90 14 c371 54 686 176
963 371 135 95 155 119 56 67z"/>
<path d="M3797 2547 c189 -154 489 -300 763 -371 137 -36 356 -73 366 -63 3 3
2 41 -1 85 l-7 81 -67 6 c-333 33 -664 115 -951 236 -63 27 -119 49 -123 49
-5 0 4 -10 20 -23z"/>
</g>
</svg>
